<svg width="1mm" height="1mm" viewBox="0 0 1 1" xmlns="http://www.w3.org/2000/svg">
<g transform="translate(454.745789 211.630234)">
<g><!-- 0x557d08c64208 0 0.000000 215.949875->0x557d08c641c0 98.226318->(nil) 184.398956->0x557d08c64178 -->
<line x1="0.000000" y1="0.000000" x2="215.949875" y2="0.000000" stroke="#00FF00" stroke-width="0.1px"/>
<line x1="215.949875" y1="0.000000" x2="164.364349" y2="83.590302" stroke="#FF0000" stroke-width="0.1px"/>
<line x1="164.364349" y1="83.590302" x2="0.000000" y2="0.000000" stroke="#00FF00" stroke-width="0.1px"/>
</g>
<g><!-- 0x557d08c641c0 0 180.000005 215.949875->0x557d08c64208 87.616417->0x557d08c64448 195.901840->(nil) -->
<line x1="0.000000" y1="-0.000019" x2="36.891579" y2="-79.471107" stroke="#00FF00" stroke-width="0.1px"/>
<line x1="36.891579" y1="-79.471107" x2="215.949875" y2="0.000000" stroke="#FF0000" stroke-width="0.1px"/>
</g>
<g><!-- 0x557d08c64448 2 114.901379 155.888321->0x557d08c64400 146.895493->(nil) 87.616417->0x557d08c641c0 -->
<line x1="0.000020" y1="-0.000047" x2="-105.760132" y2="-114.524963" stroke="#00FF00" stroke-width="0.1px"/>
<line x1="-105.760132" y1="-114.524963" x2="36.891579" y2="-79.471107" stroke="#FF0000" stroke-width="0.1px"/>
</g>
<g><!-- 0x557d08c64400 0 47.278499 155.888321->0x557d08c64448 138.347290->0x557d08c643b8 66.521721->0x557d08c64688 -->
<line x1="0.000021" y1="-0.000037" x2="-128.237045" y2="-51.915638" stroke="#FF0000" stroke-width="0.1px"/>
<line x1="-128.237045" y1="-51.915638" x2="-105.760132" y2="-114.524963" stroke="#00FF00" stroke-width="0.1px"/>
</g>
<g><!-- 0x557d08c64688 2 109.748271 149.969086->0x557d08c64640 144.329300->(nil) 66.521721->0x557d08c64400 -->
<line x1="-128.237045" y1="-51.915638" x2="-247.207977" y2="-143.220871" stroke="#00FF00" stroke-width="0.1px"/>
<line x1="-247.207977" y1="-143.220871" x2="-105.760132" y2="-114.524963" stroke="#FF0000" stroke-width="0.1px"/>
</g>
<g><!-- 0x557d08c64640 0 37.504740 149.969086->0x557d08c64688 136.549240->0x557d08c645f8 46.693493->0x557d08c648c8 -->
<line x1="-128.237061" y1="-51.915634" x2="-256.934570" y2="-97.551674" stroke="#FF0000" stroke-width="0.1px"/>
<line x1="-256.934570" y1="-97.551674" x2="-252.557602" y2="-118.102814" stroke="#00FF00" stroke-width="0.1px"/>
<line x1="-251.584946" y1="-122.669731" x2="-247.207977" y2="-143.220871" stroke="#00FF00" stroke-width="0.1px"/>
</g>
<g><!-- 0x557d08c648c8 1 102.023166 137.273499->0x557d08c64880 46.693493->0x557d08c64640 138.959671->0x557d08c647f0 -->
<line x1="-256.934570" y1="-97.551674" x2="-384.088348" y2="-153.602615" stroke="#00FF00" stroke-width="0.1px"/>
<line x1="-384.088348" y1="-153.602615" x2="-322.492188" y2="-148.930832" stroke="#00FF00" stroke-width="0.1px"/>
<line x1="-308.804138" y1="-147.892654" x2="-247.207977" y2="-143.220871" stroke="#00FF00" stroke-width="0.1px"/>
</g>
<g><!-- 0x557d08c647f0 2 23.788477 108.075768->0x557d08c64838 52.874981->0x557d08c64a78 138.959671->0x557d08c648c8 -->
<line x1="-256.934570" y1="-97.551666" x2="-364.794830" y2="-104.373314" stroke="#FF0000" stroke-width="0.1px"/>
<line x1="-364.794830" y1="-104.373314" x2="-373.476929" y2="-126.526497" stroke="#00FF00" stroke-width="0.1px"/>
<line x1="-375.406250" y1="-131.449432" x2="-384.088348" y2="-153.602615" stroke="#00FF00" stroke-width="0.1px"/>
</g>
<g><!-- 0x557d08c64a78 1 68.599239 31.905439->0x557d08c64a30 52.874981->0x557d08c647f0 26.315792->0x557d08c649a0 -->
<line x1="-364.794830" y1="-104.373314" x2="-384.600464" y2="-121.701286" stroke="#00FF00" stroke-width="0.1px"/>
<line x1="-384.600464" y1="-121.701286" x2="-384.088348" y2="-153.602615" stroke="#FF0000" stroke-width="0.1px"/>
</g>
<g><!-- 0x557d08c649a0 2 41.182750 36.438385->0x557d08c649e8 56.314869->0x557d08c64c28 26.315792->0x557d08c64a78 -->
<line x1="-364.794861" y1="-104.373314" x2="-367.525574" y2="-68.037399" stroke="#FF0000" stroke-width="0.1px"/>
<line x1="-367.525574" y1="-68.037399" x2="-384.600464" y2="-121.701286" stroke="#00FF00" stroke-width="0.1px"/>
</g>
<g><!-- 0x557d08c64c28 1 72.349871 46.337635->0x557d08c64be0 56.314869->0x557d08c649a0 13.229733->0x557d08c64b50 -->
<line x1="-367.525574" y1="-68.037399" x2="-378.236572" y2="-75.802734" stroke="#00FF00" stroke-width="0.1px"/>
<line x1="-378.236572" y1="-75.802734" x2="-381.100311" y2="-96.457085" stroke="#00FF00" stroke-width="0.1px"/>
<line x1="-381.736725" y1="-101.046936" x2="-384.600464" y2="-121.701286" stroke="#00FF00" stroke-width="0.1px"/>
</g>
<g><!-- 0x557d08c64b50 2 35.941631 35.129868->0x557d08c64b98 36.699474->0x557d08c64d90 13.229733->0x557d08c64c28 -->
<line x1="-367.525574" y1="-68.037399" x2="-390.004822" y2="-41.041264" stroke="#FF0000" stroke-width="0.1px"/>
<line x1="-390.004822" y1="-41.041264" x2="-378.236572" y2="-75.802734" stroke="#00FF00" stroke-width="0.1px"/>
</g>
<g><!-- 0x557d08c64d90 2 108.703147 33.481663->0x557d08c64dd8 5.974226->0x557d08c64e68 36.699474->0x557d08c64b50 -->
<line x1="-390.004822" y1="-41.041264" x2="-383.921326" y2="-73.965614" stroke="#00FF00" stroke-width="0.1px"/>
<line x1="-383.921326" y1="-73.965614" x2="-378.236572" y2="-75.802734" stroke="#FF0000" stroke-width="0.1px"/>
</g>
<g><!-- 0x557d08c64dd8 0 100.468578 33.481663->0x557d08c64d90 5.172949->(nil) 30.709265->0x557d08c64fd0 -->
<line x1="-390.004822" y1="-41.041264" x2="-393.552734" y2="-44.805801" stroke="#FF0000" stroke-width="0.1px"/>
<line x1="-393.552734" y1="-44.805801" x2="-383.921326" y2="-73.965614" stroke="#00FF00" stroke-width="0.1px"/>
</g>
<g><!-- 0x557d08c64fd0 2 108.278264 24.044889->0x557d08c65018 18.314268->0x557d08c65060 30.709265->0x557d08c64dd8 -->
<line x1="-393.552734" y1="-44.805801" x2="-396.951752" y2="-55.078262" stroke="#00FF00" stroke-width="0.1px"/>
<line x1="-397.707092" y1="-57.361031" x2="-401.106110" y2="-67.633492" stroke="#00FF00" stroke-width="0.1px"/>
<line x1="-401.106110" y1="-67.633492" x2="-383.921326" y2="-73.965614" stroke="#FF0000" stroke-width="0.1px"/>
</g>
<g><!-- 0x557d08c65018 0 71.691346 24.044889->0x557d08c64fd0 14.370530->(nil) 26.253485->(nil) -->
<line x1="-393.552734" y1="-44.805801" x2="-407.688446" y2="-42.218571" stroke="#FF0000" stroke-width="0.1px"/>
<line x1="-407.688446" y1="-42.218571" x2="-401.106110" y2="-67.633492" stroke="#FF0000" stroke-width="0.1px"/>
</g>
<g><!-- 0x557d08c64be0 0 82.106213 46.337635->0x557d08c64c28 52.706013->0x557d08c64e20 11.446936->0x557d08c64cb8 -->
<line x1="-378.236572" y1="-75.802727" x2="-395.342712" y2="-125.655556" stroke="#00FF00" stroke-width="0.1px"/>
<line x1="-395.342712" y1="-125.655556" x2="-384.600464" y2="-121.701286" stroke="#FF0000" stroke-width="0.1px"/>
</g>
<g><!-- 0x557d08c64e20 2 71.061220 44.493294->0x557d08c64e68 10.546049->0x557d08c64ef8 52.706013->0x557d08c64be0 -->
<line x1="-378.236572" y1="-75.802734" x2="-398.278595" y2="-115.526405" stroke="#FF0000" stroke-width="0.1px"/>
<line x1="-398.278595" y1="-115.526405" x2="-395.342712" y2="-125.655556" stroke="#FF0000" stroke-width="0.1px"/>
</g>
<g><!-- 0x557d08c64880 0 184.337327 137.273499->0x557d08c648c8 42.253899->0x557d08c64b08 148.765030->(nil) -->
<line x1="-384.088348" y1="-153.602631" x2="-385.116638" y2="-172.589050" stroke="#00FF00" stroke-width="0.1px"/>
<line x1="-385.345154" y1="-176.808258" x2="-386.373444" y2="-195.794678" stroke="#00FF00" stroke-width="0.1px"/>
<line x1="-386.373444" y1="-195.794678" x2="-247.207977" y2="-143.220871" stroke="#FF0000" stroke-width="0.1px"/>
</g>
<g><!-- 0x557d08c64b08 1 86.899901 35.635822->0x557d08c64ac0 42.253899->0x557d08c64880 30.040422->0x557d08c64a30 -->
<line x1="-384.088318" y1="-153.602615" x2="-409.877350" y2="-169.008896" stroke="#FF0000" stroke-width="0.1px"/>
<line x1="-409.877350" y1="-169.008896" x2="-399.300598" y2="-181.062500" stroke="#00FF00" stroke-width="0.1px"/>
<line x1="-396.950195" y1="-183.741074" x2="-386.373444" y2="-195.794678" stroke="#00FF00" stroke-width="0.1px"/>
</g>
<g><!-- 0x557d08c64ac0 0 131.266206 35.635822->0x557d08c64b08 41.431850->0x557d08c64d48 31.690823->(nil) -->
<line x1="-409.877350" y1="-169.008896" x2="-414.616913" y2="-210.168762" stroke="#00FF00" stroke-width="0.1px"/>
<line x1="-414.616913" y1="-210.168762" x2="-386.373444" y2="-195.794678" stroke="#FF0000" stroke-width="0.1px"/>
</g>
<g><!-- 0x557d08c64d48 1 83.431306 34.901165->0x557d08c64d00 41.431850->0x557d08c64ac0 8.645182->0x557d08c64c70 -->
<line x1="-409.877350" y1="-169.008896" x2="-415.819427" y2="-175.288315" stroke="#00FF00" stroke-width="0.1px"/>
<line x1="-415.819427" y1="-175.288315" x2="-415.278290" y2="-190.984512" stroke="#00FF00" stroke-width="0.1px"/>
<line x1="-415.158051" y1="-194.472565" x2="-414.616913" y2="-210.168762" stroke="#00FF00" stroke-width="0.1px"/>
</g>
<g><!-- 0x557d08c64c70 2 46.581147 47.201756->0x557d08c64cb8 52.705986->0x557d08c64eb0 8.645182->0x557d08c64d48 -->
<line x1="-409.877350" y1="-169.008896" x2="-413.920746" y2="-148.156509" stroke="#00FF00" stroke-width="0.1px"/>
<line x1="-414.819305" y1="-143.522644" x2="-418.862701" y2="-122.670265" stroke="#00FF00" stroke-width="0.1px"/>
<line x1="-418.862701" y1="-122.670265" x2="-415.819427" y2="-175.288315" stroke="#00FF00" stroke-width="0.1px"/>
</g>
<g><!-- 0x557d08c64cb8 0 -79.026199 47.201756->0x557d08c64c70 56.314934->0x557d08c64a30 11.446936->0x557d08c64be0 -->
<line x1="-409.877380" y1="-169.008911" x2="-413.089752" y2="-112.785667" stroke="#00FF00" stroke-width="0.1px"/>
<line x1="-413.089752" y1="-112.785667" x2="-418.862701" y2="-122.670265" stroke="#FF0000" stroke-width="0.1px"/>
</g>
<g><!-- 0x557d08c64a30 1 -86.729895 31.905439->0x557d08c64a78 56.314934->0x557d08c64cb8 30.040422->0x557d08c64b08 -->
<line x1="-409.877380" y1="-169.008911" x2="-398.550446" y2="-141.185760" stroke="#FF0000" stroke-width="0.1px"/>
<line x1="-398.550446" y1="-141.185760" x2="-413.089752" y2="-112.785667" stroke="#FF0000" stroke-width="0.1px"/>
</g>
<g><!-- 0x557d08c64eb0 2 93.310132 39.258312->0x557d08c64ef8 16.516933->0x557d08c64f88 52.705986->0x557d08c64c70 -->
<line x1="-418.862701" y1="-122.670265" x2="-421.562897" y2="-140.128937" stroke="#00FF00" stroke-width="0.1px"/>
<line x1="-422.162933" y1="-144.008636" x2="-424.863129" y2="-161.467300" stroke="#00FF00" stroke-width="0.1px"/>
<line x1="-424.863129" y1="-161.467300" x2="-420.793457" y2="-167.686752" stroke="#00FF00" stroke-width="0.1px"/>
<line x1="-419.889099" y1="-169.068863" x2="-415.819427" y2="-175.288315" stroke="#00FF00" stroke-width="0.1px"/>
</g>
<g><!-- 0x557d08c64ef8 0 81.208178 39.258312->0x557d08c64eb0 10.546049->0x557d08c64e20 44.721420->0x557d08c65138 -->
<line x1="-418.862701" y1="-122.670265" x2="-427.645630" y2="-116.832527" stroke="#FF0000" stroke-width="0.1px"/>
<line x1="-427.645630" y1="-116.832527" x2="-424.863129" y2="-161.467300" stroke="#00FF00" stroke-width="0.1px"/>
</g>
<g><!-- 0x557d08c65138 2 93.567156 19.038084->0x557d08c650f0 36.777390->0x557d08c651c8 44.721420->0x557d08c64ef8 -->
<line x1="-427.645630" y1="-116.832527" x2="-442.242065" y2="-129.055130" stroke="#00FF00" stroke-width="0.1px"/>
<line x1="-442.242065" y1="-129.055130" x2="-424.863129" y2="-161.467300" stroke="#FF0000" stroke-width="0.1px"/>
</g>
<g><!-- 0x557d08c650f0 0 39.941742 19.038084->0x557d08c65138 27.421888->0x557d08c650a8 35.081821->(nil) -->
<line x1="-427.645599" y1="-116.832520" x2="-434.464539" y2="-106.547867" stroke="#00FF00" stroke-width="0.1px"/>
<line x1="-435.979828" y1="-104.262383" x2="-442.798767" y2="-93.977730" stroke="#00FF00" stroke-width="0.1px"/>
<line x1="-442.798767" y1="-93.977730" x2="-442.242065" y2="-129.055130" stroke="#FF0000" stroke-width="0.1px"/>
</g>
<g><!-- 0x557d08c650a8 1 -56.454868 23.161585->0x557d08c65060 27.421888->0x557d08c650f0 44.721382->0x557d08c64e68 -->
<line x1="-427.645599" y1="-116.832527" x2="-433.977661" y2="-72.561684" stroke="#00FF00" stroke-width="0.1px"/>
<line x1="-433.977661" y1="-72.561684" x2="-437.947144" y2="-82.198906" stroke="#00FF00" stroke-width="0.1px"/>
<line x1="-438.829285" y1="-84.340508" x2="-442.798767" y2="-93.977730" stroke="#00FF00" stroke-width="0.1px"/>
</g>
<g><!-- 0x557d08c64e68 2 -81.860205 44.493294->0x557d08c64e20 5.974226->0x557d08c64d90 44.721382->0x557d08c650a8 -->
<line x1="-427.645599" y1="-116.832520" x2="-428.007538" y2="-72.340698" stroke="#FF0000" stroke-width="0.1px"/>
<line x1="-428.007538" y1="-72.340698" x2="-433.977661" y2="-72.561684" stroke="#FF0000" stroke-width="0.1px"/>
</g>
<g><!-- 0x557d08c65060 0 67.613588 23.161585->0x557d08c650a8 18.314268->0x557d08c64fd0 35.081821->(nil) -->
<line x1="-433.977661" y1="-72.561684" x2="-446.371643" y2="-59.078320" stroke="#FF0000" stroke-width="0.1px"/>
<line x1="-446.371643" y1="-59.078320" x2="-442.798767" y2="-93.977730" stroke="#FF0000" stroke-width="0.1px"/>
</g>
<g><!-- 0x557d08c64f88 1 123.198496 28.694530->0x557d08c64f40 16.516933->0x557d08c64eb0 30.709267->0x557d08c65180 -->
<line x1="-424.863129" y1="-161.467300" x2="-442.053101" y2="-186.914566" stroke="#00FF00" stroke-width="0.1px"/>
<line x1="-442.053101" y1="-186.914566" x2="-415.819427" y2="-175.288315" stroke="#FF0000" stroke-width="0.1px"/>
</g>
<g><!-- 0x557d08c65180 2 55.960428 32.827057->0x557d08c651c8 41.047260->(nil) 30.709267->0x557d08c64f88 -->
<line x1="-424.863129" y1="-161.467300" x2="-454.745789" y2="-147.879028" stroke="#FF0000" stroke-width="0.1px"/>
<line x1="-454.745789" y1="-147.879028" x2="-442.053101" y2="-186.914566" stroke="#FF0000" stroke-width="0.1px"/>
</g>
<g><!-- 0x557d08c64d00 0 91.974490 34.901165->0x557d08c64d48 36.699490->0x557d08c64f40 6.480049->(nil) -->
<line x1="-415.819427" y1="-175.288315" x2="-420.929993" y2="-211.630234" stroke="#00FF00" stroke-width="0.1px"/>
<line x1="-420.929993" y1="-211.630234" x2="-414.616913" y2="-210.168762" stroke="#FF0000" stroke-width="0.1px"/>
</g>
<g><!-- 0x557d08c64f40 2 81.995249 28.694530->0x557d08c64f88 19.282734->(nil) 36.699490->0x557d08c64d00 -->
<line x1="-415.819397" y1="-175.288330" x2="-434.020386" y2="-197.471649" stroke="#FF0000" stroke-width="0.1px"/>
<line x1="-434.020386" y1="-197.471649" x2="-420.929993" y2="-211.630234" stroke="#FF0000" stroke-width="0.1px"/>
</g>
<g><!-- 0x557d08c64178 1 26.956392 174.014999->0x557d08c64130 184.398956->0x557d08c64208 77.215866->(nil) -->
<line x1="164.364349" y1="83.590302" x2="108.042068" y2="136.411621" stroke="#FF0000" stroke-width="0.1px"/>
<line x1="108.042068" y1="136.411621" x2="59.423138" y2="75.026390" stroke="#00FF00" stroke-width="0.1px"/>
<line x1="48.618931" y1="61.385231" x2="0.000000" y2="0.000000" stroke="#00FF00" stroke-width="0.1px"/>
</g>
<g><!-- 0x557d08c64130 0 51.619726 174.014999->0x557d08c64178 159.191803->0x557d08c640e8 62.792152->0x557d08c643b8 -->
<line x1="108.042068" y1="136.411621" x2="-29.128891" y2="55.626987" stroke="#00FF00" stroke-width="0.1px"/>
<line x1="-29.128891" y1="55.626987" x2="0.000000" y2="0.000000" stroke="#00FF00" stroke-width="0.1px"/>
</g>
<g><!-- 0x557d08c640e8 1 30.495278 151.329376->0x557d08c640a0 159.191803->0x557d08c64130 77.215881->(nil) -->
<line x1="108.042068" y1="136.411636" x2="48.474174" y2="185.543671" stroke="#FF0000" stroke-width="0.1px"/>
<line x1="48.474174" y1="185.543671" x2="-29.128891" y2="55.626987" stroke="#00FF00" stroke-width="0.1px"/>
</g>
<g><!-- 0x557d08c640a0 0 59.148880 151.329376->0x557d08c640e8 134.281601->0x557d08c64010 62.792107->0x557d08c64328 -->
<line x1="48.474186" y1="185.543671" x2="-61.960663" y2="109.151962" stroke="#00FF00" stroke-width="0.1px"/>
<line x1="-61.960663" y1="109.151962" x2="-47.186367" y2="85.065727" stroke="#00FF00" stroke-width="0.1px"/>
<line x1="-43.903187" y1="79.713226" x2="-29.128891" y2="55.626987" stroke="#00FF00" stroke-width="0.1px"/>
</g>
<g><!-- 0x557d08c64010 2 34.672984 162.993637->0x557d08c64058 87.616417->0x557d08c64250 134.281601->0x557d08c640a0 -->
<line x1="48.474186" y1="185.543671" x2="-24.819832" y2="182.752808" stroke="#00FF00" stroke-width="0.1px"/>
<line x1="-41.107391" y1="182.132599" x2="-114.401413" y2="179.341736" stroke="#00FF00" stroke-width="0.1px"/>
<line x1="-114.401413" y1="179.341736" x2="-90.803078" y2="147.756332" stroke="#00FF00" stroke-width="0.1px"/>
<line x1="-85.558998" y1="140.737366" x2="-61.960663" y2="109.151962" stroke="#00FF00" stroke-width="0.1px"/>
</g>
<g><!-- 0x557d08c64058 0 2.180640 162.993637->0x557d08c64010 98.226311->(nil) 123.056694->(nil) -->
<line x1="48.474190" y1="185.543671" x2="-18.934870" y2="256.988953" stroke="#FF0000" stroke-width="0.1px"/>
<line x1="-18.934870" y1="256.988953" x2="-114.401413" y2="179.341736" stroke="#FF0000" stroke-width="0.1px"/>
</g>
<g><!-- 0x557d08c64250 2 126.764435 104.391869->0x557d08c64298 95.846001->0x557d08c642e0 87.616417->0x557d08c64010 -->
<line x1="-114.401398" y1="179.341751" x2="-132.271301" y2="135.897034" stroke="#00FF00" stroke-width="0.1px"/>
<line x1="-136.242386" y1="126.242653" x2="-154.112289" y2="82.797935" stroke="#00FF00" stroke-width="0.1px"/>
<line x1="-154.112289" y1="82.797935" x2="-61.960663" y2="109.151962" stroke="#FF0000" stroke-width="0.1px"/>
</g>
<g><!-- 0x557d08c64298 0 67.641405 104.391869->0x557d08c64250 84.273689->(nil) 66.521713->0x557d08c64490 -->
<line x1="-114.401398" y1="179.341751" x2="-188.720367" y2="139.608307" stroke="#FF0000" stroke-width="0.1px"/>
<line x1="-188.720367" y1="139.608307" x2="-154.112289" y2="82.797935" stroke="#FF0000" stroke-width="0.1px"/>
</g>
<g><!-- 0x557d08c64328 2 121.524610 92.388824->0x557d08c642e0 118.141624->0x557d08c64370 62.792107->0x557d08c640a0 -->
<line x1="-61.960670" y1="109.151962" x2="-146.229324" y2="71.277306" stroke="#FF0000" stroke-width="0.1px"/>
<line x1="-146.229324" y1="71.277306" x2="-29.128891" y2="55.626987" stroke="#FF0000" stroke-width="0.1px"/>
</g>
<g><!-- 0x557d08c643b8 2 117.638661 119.295662->0x557d08c64370 138.347290->0x557d08c64400 62.792152->0x557d08c64130 -->
<line x1="-29.128893" y1="55.626991" x2="-138.159103" y2="7.213490" stroke="#00FF00" stroke-width="0.1px"/>
<line x1="-138.159103" y1="7.213490" x2="0.000000" y2="0.000000" stroke="#FF0000" stroke-width="0.1px"/>
</g>
<g><!-- 0x557d08c64370 0 23.943017 119.295662->0x557d08c643b8 118.141624->0x557d08c64328 45.362125->0x557d08c645f8 -->
<line x1="-29.128889" y1="55.626995" x2="-147.204056" y2="51.664715" stroke="#FF0000" stroke-width="0.1px"/>
<line x1="-147.204056" y1="51.664715" x2="-138.159103" y2="7.213490" stroke="#00FF00" stroke-width="0.1px"/>
</g>
<g><!-- 0x557d08c645f8 2 101.501531 126.000084->0x557d08c645b0 136.549240->0x557d08c64640 45.362125->0x557d08c64370 -->
<line x1="-147.204041" y1="51.664715" x2="-271.998993" y2="34.279644" stroke="#00FF00" stroke-width="0.1px"/>
<line x1="-271.998993" y1="34.279644" x2="-138.159103" y2="7.213490" stroke="#FF0000" stroke-width="0.1px"/>
</g>
<g><!-- 0x557d08c645b0 0 7.930779 126.000084->0x557d08c645f8 117.817131->0x557d08c64568 36.434086->0x557d08c64838 -->
<line x1="-147.204041" y1="51.664707" x2="-263.626556" y2="69.738708" stroke="#00FF00" stroke-width="0.1px"/>
<line x1="-263.626556" y1="69.738708" x2="-267.394165" y2="53.782131" stroke="#00FF00" stroke-width="0.1px"/>
<line x1="-268.231384" y1="50.236221" x2="-271.998993" y2="34.279644" stroke="#00FF00" stroke-width="0.1px"/>
</g>
<g><!-- 0x557d08c64568 1 -8.824432 100.209030->0x557d08c64520 117.817131->0x557d08c645b0 45.355755->0x557d08c642e0 -->
<line x1="-147.204025" y1="51.664711" x2="-166.127182" y2="92.884338" stroke="#FF0000" stroke-width="0.1px"/>
<line x1="-166.127182" y1="92.884338" x2="-210.001907" y2="82.468803" stroke="#00FF00" stroke-width="0.1px"/>
<line x1="-219.751831" y1="80.154243" x2="-263.626556" y2="69.738708" stroke="#00FF00" stroke-width="0.1px"/>
</g>
<g><!-- 0x557d08c64520 0 13.354393 100.209030->0x557d08c64568 96.587570->0x557d08c64490 36.434132->0x557d08c647a8 -->
<line x1="-166.127167" y1="92.884338" x2="-261.802612" y2="106.127159" stroke="#FF0000" stroke-width="0.1px"/>
<line x1="-261.802612" y1="106.127159" x2="-263.626556" y2="69.738708" stroke="#FF0000" stroke-width="0.1px"/>
</g>
<g><!-- 0x557d08c64838 1 76.714907 108.075768->0x557d08c647f0 36.434086->0x557d08c645b0 117.283295->0x557d08c64760 -->
<line x1="-263.626556" y1="69.738708" x2="-379.065033" y2="49.018436" stroke="#00FF00" stroke-width="0.1px"/>
<line x1="-379.065033" y1="49.018436" x2="-271.998993" y2="34.279644" stroke="#FF0000" stroke-width="0.1px"/>
</g>
<g><!-- 0x557d08c64760 2 10.175773 93.249489->0x557d08c647a8 52.874981->0x557d08c649e8 117.283295->0x557d08c64838 -->
<line x1="-263.626556" y1="69.738708" x2="-353.330383" y2="95.208160" stroke="#FF0000" stroke-width="0.1px"/>
<line x1="-353.330383" y1="95.208160" x2="-379.065033" y2="49.018436" stroke="#00FF00" stroke-width="0.1px"/>
</g>
<g><!-- 0x557d08c649e8 1 60.875576 36.438385->0x557d08c649a0 52.874981->0x557d08c64760 22.466448->0x557d08c64910 -->
<line x1="-353.330353" y1="95.208160" x2="-373.346436" y2="85.005287" stroke="#00FF00" stroke-width="0.1px"/>
<line x1="-373.346436" y1="85.005287" x2="-379.065033" y2="49.018436" stroke="#FF0000" stroke-width="0.1px"/>
</g>
<g><!-- 0x557d08c64910 2 27.009504 37.002254->0x557d08c64958 41.431873->0x557d08c64b98 22.466448->0x557d08c649e8 -->
<line x1="-353.330383" y1="95.208160" x2="-373.178253" y2="126.436821" stroke="#00FF00" stroke-width="0.1px"/>
<line x1="-373.178253" y1="126.436821" x2="-373.346436" y2="85.005287" stroke="#00FF00" stroke-width="0.1px"/>
</g>
<g><!-- 0x557d08c64958 0 -57.561352 37.002254->0x557d08c64910 42.253899->0x557d08c64718 20.644779->(nil) -->
<line x1="-353.330383" y1="95.208168" x2="-355.682770" y2="137.396530" stroke="#00FF00" stroke-width="0.1px"/>
<line x1="-355.682770" y1="137.396530" x2="-373.178253" y2="126.436821" stroke="#FF0000" stroke-width="0.1px"/>
</g>
<g><!-- 0x557d08c64718 2 -86.808530 106.956505->0x557d08c646d0 85.607155->(nil) 42.253899->0x557d08c64958 -->
<line x1="-353.330383" y1="95.208168" x2="-318.656708" y2="128.588913" stroke="#00FF00" stroke-width="0.1px"/>
<line x1="-310.951416" y1="136.006851" x2="-276.277740" y2="169.387589" stroke="#00FF00" stroke-width="0.1px"/>
<line x1="-276.277740" y1="169.387589" x2="-355.682770" y2="137.396530" stroke="#FF0000" stroke-width="0.1px"/>
</g>
<g><!-- 0x557d08c646d0 0 -136.088405 106.956505->0x557d08c64718 95.566513->0x557d08c647a8 46.690430->0x557d08c644d8 -->
<line x1="-353.330353" y1="95.208160" x2="-262.457336" y2="124.789459" stroke="#FF0000" stroke-width="0.1px"/>
<line x1="-262.457336" y1="124.789459" x2="-276.277740" y2="169.387589" stroke="#00FF00" stroke-width="0.1px"/>
</g>
<g><!-- 0x557d08c644d8 2 -72.782457 97.268822->0x557d08c64490 85.317993->(nil) 46.690430->0x557d08c646d0 -->
<line x1="-262.457336" y1="124.789459" x2="-194.789597" y2="194.662903" stroke="#FF0000" stroke-width="0.1px"/>
<line x1="-194.789597" y1="194.662903" x2="-276.277740" y2="169.387589" stroke="#FF0000" stroke-width="0.1px"/>
</g>
<g><!-- 0x557d08c64b98 1 89.767410 35.129868->0x557d08c64b50 41.431873->0x557d08c64910 13.705133->(nil) -->
<line x1="-373.178253" y1="126.436821" x2="-384.274048" y2="118.392334" stroke="#FF0000" stroke-width="0.1px"/>
<line x1="-384.274048" y1="118.392334" x2="-373.346436" y2="85.005287" stroke="#FF0000" stroke-width="0.1px"/>
</g>
</g>
<g transform="translate(0.000000 468.619202)">
<g><!-- 0x557d08c642e0 0 0.000000 92.388824->0x557d08c64328 95.846001->0x557d08c64250 45.355755->0x557d08c64568 -->
<line x1="0.000000" y1="0.000000" x2="92.388824" y2="0.000000" stroke="#FF0000" stroke-width="0.1px"/>
<line x1="92.388824" y1="0.000000" x2="7.611222" y2="44.712570" stroke="#FF0000" stroke-width="0.1px"/>
<line x1="7.611222" y1="44.712570" x2="0.000000" y2="0.000000" stroke="#FF0000" stroke-width="0.1px"/>
</g>
</g>
<g transform="translate(0.000000 513.331787)">
<g><!-- 0x557d08c64490 0 0.000000 97.268822->0x557d08c644d8 96.587570->0x557d08c64520 66.521713->0x557d08c64298 -->
<line x1="0.000000" y1="0.000000" x2="97.268822" y2="0.000000" stroke="#FF0000" stroke-width="0.1px"/>
<line x1="97.268822" y1="0.000000" x2="23.425812" y2="62.260498" stroke="#FF0000" stroke-width="0.1px"/>
<line x1="23.425812" y1="62.260498" x2="0.000000" y2="0.000000" stroke="#FF0000" stroke-width="0.1px"/>
</g>
</g>
<g transform="translate(0.000000 575.592285)">
<g><!-- 0x557d08c647a8 0 0.000000 93.249489->0x557d08c64760 36.434132->0x557d08c64520 95.566513->0x557d08c646d0 -->
<line x1="0.000000" y1="0.000000" x2="93.249489" y2="0.000000" stroke="#FF0000" stroke-width="0.1px"/>
<line x1="93.249489" y1="0.000000" x2="88.477592" y2="36.120270" stroke="#FF0000" stroke-width="0.1px"/>
<line x1="88.477592" y1="36.120270" x2="0.000000" y2="0.000000" stroke="#FF0000" stroke-width="0.1px"/>
</g>
</g>
<g transform="translate(0.000000 611.712524)">
<g><!-- 0x557d08c651c8 0 0.000000 32.827057->0x557d08c65180 36.777390->0x557d08c65138 26.253485->(nil) -->
<line x1="0.000000" y1="0.000000" x2="32.827057" y2="0.000000" stroke="#FF0000" stroke-width="0.1px"/>
<line x1="32.827057" y1="0.000000" x2="6.310112" y2="25.483877" stroke="#FF0000" stroke-width="0.1px"/>
<line x1="6.310112" y1="25.483877" x2="0.000000" y2="0.000000" stroke="#FF0000" stroke-width="0.1px"/>
</g>
</g>
</svg>
