solid OpenSCAD_Model
  facet normal -0.237593 0.289983 0.92707
    outer loop
      vertex 425 92.8131 286.738
      vertex 544.92 0 346.503
      vertex 554.08 83.8042 322.637
    endloop
  endfacet
  facet normal -0.212554 0.319906 0.923299
    outer loop
      vertex 544.92 0 346.503
      vertex 425 92.8131 286.738
      vertex 425 0 318.896
    endloop
  endfacet
  facet normal -0.0629295 0.890888 0.449842
    outer loop
      vertex 574.22 111.739 270.131
      vertex 425 92.8131 286.738
      vertex 554.08 83.8042 322.637
    endloop
  endfacet
  facet normal -0.0714326 0.913883 0.399644
    outer loop
      vertex 425 92.8131 286.738
      vertex 574.22 111.739 270.131
      vertex 425 123.751 215.991
    endloop
  endfacet
  facet normal 0.214662 0.894001 -0.393297
    outer loop
      vertex 594.36 83.8042 217.625
      vertex 425 123.751 215.991
      vertex 574.22 111.739 270.131
    endloop
  endfacet
  facet normal 0.214838 0.894829 -0.391312
    outer loop
      vertex 425 123.751 215.991
      vertex 594.36 83.8042 217.625
      vertex 425 92.8131 145.244
    endloop
  endfacet
  facet normal 0.393942 0.291318 -0.871748
    outer loop
      vertex 425 0 113.086
      vertex 594.36 83.8042 217.625
      vertex 603.52 0 193.759
    endloop
  endfacet
  facet normal 0.388205 0.301711 -0.870785
    outer loop
      vertex 594.36 83.8042 217.625
      vertex 425 0 113.086
      vertex 425 92.8131 145.244
    endloop
  endfacet
  facet normal -0.75433 0.254758 0.605049
    outer loop
      vertex 544.92 0 346.503
      vertex 608.59 63.9847 398.941
      vertex 554.08 83.8042 322.637
    endloop
  endfacet
  facet normal -0.758565 0.268134 0.593871
    outer loop
      vertex 608.59 63.9847 398.941
      vertex 544.92 0 346.503
      vertex 596.87 0 412.86
    endloop
  endfacet
  facet normal -0.247046 0.880251 0.405125
    outer loop
      vertex 634.37 85.3129 368.32
      vertex 554.08 83.8042 322.637
      vertex 608.59 63.9847 398.941
    endloop
  endfacet
  facet normal -0.235552 0.892559 0.384517
    outer loop
      vertex 554.08 83.8042 322.637
      vertex 634.37 85.3129 368.32
      vertex 574.22 111.739 270.131
    endloop
  endfacet
  facet normal 0.549429 0.827755 -0.113799
    outer loop
      vertex 660.16 63.9847 337.698
      vertex 574.22 111.739 270.131
      vertex 634.37 85.3129 368.32
    endloop
  endfacet
  facet normal 0.587921 0.785681 -0.192494
    outer loop
      vertex 574.22 111.739 270.131
      vertex 660.16 63.9847 337.698
      vertex 594.36 83.8042 217.625
    endloop
  endfacet
  facet normal 0.865477 0.252631 -0.432582
    outer loop
      vertex 671.88 0 323.779
      vertex 594.36 83.8042 217.625
      vertex 660.16 63.9847 337.698
    endloop
  endfacet
  facet normal 0.862734 0.223475 -0.453595
    outer loop
      vertex 594.36 83.8042 217.625
      vertex 671.88 0 323.779
      vertex 603.52 0 193.759
    endloop
  endfacet
  facet normal -0.897703 0.244209 0.366732
    outer loop
      vertex 596.87 0 412.86
      vertex 639.67 44.1651 488.218
      vertex 608.59 63.9847 398.941
    endloop
  endfacet
  facet normal -0.891499 0.324419 0.316199
    outer loop
      vertex 639.67 44.1651 488.218
      vertex 596.87 0 412.86
      vertex 625.39 0 493.27
    endloop
  endfacet
  facet normal -0.312084 0.89869 0.308156
    outer loop
      vertex 671.09 58.8868 477.105
      vertex 608.59 63.9847 398.941
      vertex 639.67 44.1651 488.218
    endloop
  endfacet
  facet normal -0.339025 0.881531 0.328579
    outer loop
      vertex 608.59 63.9847 398.941
      vertex 671.09 58.8868 477.105
      vertex 634.37 85.3129 368.32
    endloop
  endfacet
  facet normal 0.442843 0.894039 0.0677001
    outer loop
      vertex 702.51 44.1651 465.992
      vertex 634.37 85.3129 368.32
      vertex 671.09 58.8868 477.105
    endloop
  endfacet
  facet normal 0.586059 0.807348 -0.0687353
    outer loop
      vertex 634.37 85.3129 368.32
      vertex 702.51 44.1651 465.992
      vertex 660.16 63.9847 337.698
    endloop
  endfacet
  facet normal 0.912179 0.323864 -0.251079
    outer loop
      vertex 716.8 0 460.94
      vertex 660.16 63.9847 337.698
      vertex 702.51 44.1651 465.992
    endloop
  endfacet
  facet normal 0.923719 0.235005 -0.302516
    outer loop
      vertex 660.16 63.9847 337.698
      vertex 716.8 0 460.94
      vertex 671.88 0 323.779
    endloop
  endfacet
  facet normal -0.730429 0.306016 0.610596
    outer loop
      vertex 625.39 0 493.27
      vertex 698.44 35.1562 563.037
      vertex 639.67 44.1651 488.218
    endloop
  endfacet
  facet normal -0.716082 0.47744 0.509193
    outer loop
      vertex 698.44 35.1562 563.037
      vertex 625.39 0 493.27
      vertex 675 0 563.037
    endloop
  endfacet
  facet normal -0.209846 0.923275 0.321756
    outer loop
      vertex 671.09 58.8868 477.105
      vertex 698.44 35.1562 563.037
      vertex 750 46.875 563.037
    endloop
  endfacet
  facet normal -0.297295 0.89185 0.340911
    outer loop
      vertex 698.44 35.1562 563.037
      vertex 671.09 58.8868 477.105
      vertex 639.67 44.1651 488.218
    endloop
  endfacet
  facet normal 0.21962 0.966276 -0.134456
    outer loop
      vertex 702.51 44.1651 465.992
      vertex 750 46.875 563.037
      vertex 801.56 35.1562 563.037
    endloop
  endfacet
  facet normal 0.356786 0.912509 -0.200078
    outer loop
      vertex 750 46.875 563.037
      vertex 702.51 44.1651 465.992
      vertex 671.09 58.8868 477.105
    endloop
  endfacet
  facet normal 0.624066 0.416089 -0.661371
    outer loop
      vertex 716.8 0 460.94
      vertex 801.56 35.1562 563.037
      vertex 825 0 563.037
    endloop
  endfacet
  facet normal 0.681893 0.29709 -0.668401
    outer loop
      vertex 801.56 35.1562 563.037
      vertex 716.8 0 460.94
      vertex 702.51 44.1651 465.992
    endloop
  endfacet
  facet normal -0.427733 0.311815 0.84842
    outer loop
      vertex 698.44 35.1562 563.037
      vertex 692.97 0 573.2
      vertex 718.07 32.959 573.741
    endloop
  endfacet
  facet normal -0.467731 0.311854 0.827028
    outer loop
      vertex 692.97 0 573.2
      vertex 698.44 35.1562 563.037
      vertex 675 0 563.037
    endloop
  endfacet
  facet normal -0.174954 0.820284 0.544541
    outer loop
      vertex 750 46.875 563.037
      vertex 718.07 32.959 573.741
      vertex 773.29 43.9453 574.933
    endloop
  endfacet
  facet normal -0.189493 0.833726 0.518646
    outer loop
      vertex 718.07 32.959 573.741
      vertex 750 46.875 563.037
      vertex 698.44 35.1562 563.037
    endloop
  endfacet
  facet normal 0.194391 0.950951 -0.240633
    outer loop
      vertex 801.56 35.1562 563.037
      vertex 773.29 43.9453 574.933
      vertex 828.51 32.959 576.125
    endloop
  endfacet
  facet normal 0.217585 0.957325 -0.190222
    outer loop
      vertex 773.29 43.9453 574.933
      vertex 801.56 35.1562 563.037
      vertex 750 46.875 563.037
    endloop
  endfacet
  facet normal 0.410493 0.298442 -0.861643
    outer loop
      vertex 825 0 563.037
      vertex 828.51 32.959 576.125
      vertex 853.61 0 576.667
    endloop
  endfacet
  facet normal 0.437013 0.291373 -0.850953
    outer loop
      vertex 828.51 32.959 576.125
      vertex 825 0 563.037
      vertex 801.56 35.1562 563.037
    endloop
  endfacet
  facet normal -0.234664 0.166848 0.957651
    outer loop
      vertex 718.07 32.959 573.741
      vertex 706.25 0 576.587
      vertex 729.81 28.125 577.46
    endloop
  endfacet
  facet normal -0.243542 0.169796 0.954912
    outer loop
      vertex 706.25 0 576.587
      vertex 718.07 32.959 573.741
      vertex 692.97 0 573.2
    endloop
  endfacet
  facet normal -0.115519 0.458259 0.88128
    outer loop
      vertex 773.29 43.9453 574.933
      vertex 729.81 28.125 577.46
      vertex 781.64 37.5 579.379
    endloop
  endfacet
  facet normal -0.105427 0.432765 0.895321
    outer loop
      vertex 729.81 28.125 577.46
      vertex 773.29 43.9453 574.933
      vertex 718.07 32.959 573.741
    endloop
  endfacet
  facet normal 0.11823 0.779594 0.615024
    outer loop
      vertex 828.51 32.959 576.125
      vertex 781.64 37.5 579.379
      vertex 833.47 28.125 581.299
    endloop
  endfacet
  facet normal 0.115519 0.66107 0.741379
    outer loop
      vertex 781.64 37.5 579.379
      vertex 828.51 32.959 576.125
      vertex 773.29 43.9453 574.933
    endloop
  endfacet
  facet normal 0.697424 0.570789 -0.433359
    outer loop
      vertex 853.61 0 576.667
      vertex 833.47 28.125 581.299
      vertex 857.03 0 582.171
    endloop
  endfacet
  facet normal 0.78166 0.592048 -0.196181
    outer loop
      vertex 833.47 28.125 581.299
      vertex 853.61 0 576.667
      vertex 828.51 32.959 576.125
    endloop
  endfacet
  facet normal 0.534242 -0.469352 0.703061
    outer loop
      vertex 706.25 0 576.587
      vertex 730.16 23.291 573.967
      vertex 729.81 28.125 577.46
    endloop
  endfacet
  facet normal 0.564622 -0.506305 0.65181
    outer loop
      vertex 730.16 23.291 573.967
      vertex 706.25 0 576.587
      vertex 710.16 0 573.2
    endloop
  endfacet
  facet normal 0.070561 -0.559184 0.826036
    outer loop
      vertex 729.81 28.125 577.46
      vertex 774.17 31.0547 575.654
      vertex 781.64 37.5 579.379
    endloop
  endfacet
  facet normal 0.0713728 -0.580798 0.810913
    outer loop
      vertex 774.17 31.0547 575.654
      vertex 729.81 28.125 577.46
      vertex 730.16 23.291 573.967
    endloop
  endfacet
  facet normal -0.106912 -0.405108 0.907996
    outer loop
      vertex 781.64 37.5 579.379
      vertex 818.18 23.291 577.342
      vertex 833.47 28.125 581.299
    endloop
  endfacet
  facet normal -0.105912 -0.402707 0.909181
    outer loop
      vertex 818.18 23.291 577.342
      vertex 781.64 37.5 579.379
      vertex 774.17 31.0547 575.654
    endloop
  endfacet
  facet normal -0.208441 -0.144619 0.967284
    outer loop
      vertex 833.47 28.125 581.299
      vertex 838.18 0 578.109
      vertex 857.03 0 582.171
    endloop
  endfacet
  facet normal -0.204975 -0.14413 0.968097
    outer loop
      vertex 838.18 0 578.109
      vertex 833.47 28.125 581.299
      vertex 818.18 23.291 577.342
    endloop
  endfacet
  facet normal 0.574586 -0.471365 -0.669079
    outer loop
      vertex 710.16 0 573.2
      vertex 715.63 21.0938 563.037
      vertex 730.16 23.291 573.967
    endloop
  endfacet
  facet normal 0.626415 -0.464159 -0.626227
    outer loop
      vertex 715.63 21.0938 563.037
      vertex 710.16 0 573.2
      vertex 700 0 563.037
    endloop
  endfacet
  facet normal 0.199941 -0.977353 -0.0693223
    outer loop
      vertex 750 28.125 563.037
      vertex 730.16 23.291 573.967
      vertex 715.63 21.0938 563.037
    endloop
  endfacet
  facet normal 0.176787 -0.977902 -0.111594
    outer loop
      vertex 730.16 23.291 573.967
      vertex 750 28.125 563.037
      vertex 774.17 31.0547 575.654
    endloop
  endfacet
  facet normal -0.170993 -0.835848 0.521651
    outer loop
      vertex 784.37 21.0938 563.037
      vertex 774.17 31.0547 575.654
      vertex 750 28.125 563.037
    endloop
  endfacet
  facet normal -0.167419 -0.835122 0.523967
    outer loop
      vertex 774.17 31.0547 575.654
      vertex 784.37 21.0938 563.037
      vertex 818.18 23.291 577.342
    endloop
  endfacet
  facet normal -0.353156 -0.273794 0.894605
    outer loop
      vertex 818.18 23.291 577.342
      vertex 800 0 563.037
      vertex 838.18 0 578.109
    endloop
  endfacet
  facet normal -0.360699 -0.267269 0.893568
    outer loop
      vertex 800 0 563.037
      vertex 818.18 23.291 577.342
      vertex 784.37 21.0938 563.037
    endloop
  endfacet
endsolid OpenSCAD_Model
