solid OpenSCAD_Model
  facet normal 0.980954 0.192917 0.0226406
    outer loop
      vertex 49.219 0 671.153
      vertex 46.125 19.6248 637.988
      vertex 45.414 19.3479 671.153
    endloop
  endfacet
  facet normal 0.980796 0.193662 0.0230966
    outer loop
      vertex 46.125 19.6248 637.988
      vertex 49.219 0 671.153
      vertex 50 0 637.988
    endloop
  endfacet
  facet normal 0.830835 0.556081 0.0220802
    outer loop
      vertex 34.972 34.9715 671.153
      vertex 46.125 19.6248 637.988
      vertex 35.5 35.4995 637.988
    endloop
  endfacet
  facet normal 0.831195 0.555527 0.0224575
    outer loop
      vertex 46.125 19.6248 637.988
      vertex 34.972 34.9715 671.153
      vertex 45.414 19.3479 671.153
    endloop
  endfacet
  facet normal 0.556063 0.830847 0.0220801
    outer loop
      vertex 19.625 46.1242 637.988
      vertex 34.972 34.9715 671.153
      vertex 35.5 35.4995 637.988
    endloop
  endfacet
  facet normal 0.555532 0.831192 0.0224417
    outer loop
      vertex 34.972 34.9715 671.153
      vertex 19.625 46.1242 637.988
      vertex 19.348 45.4139 671.153
    endloop
  endfacet
  facet normal 0.192896 0.980958 0.0226204
    outer loop
      vertex 19.625 46.1242 637.988
      vertex 0 49.2185 671.153
      vertex 19.348 45.4139 671.153
    endloop
  endfacet
  facet normal 0.193651 0.980799 0.023082
    outer loop
      vertex 0 49.2185 671.153
      vertex 19.625 46.1242 637.988
      vertex 0 49.999 637.988
    endloop
  endfacet
  facet normal -0.192894 0.980948 0.0230855
    outer loop
      vertex 0 49.999 637.988
      vertex -19.348 45.4139 671.153
      vertex 0 49.2185 671.153
    endloop
  endfacet
  facet normal -0.193653 0.980809 0.0226236
    outer loop
      vertex -19.348 45.4139 671.153
      vertex 0 49.999 637.988
      vertex -19.625 46.1242 637.988
    endloop
  endfacet
  facet normal -0.555532 0.831192 0.0224417
    outer loop
      vertex -19.625 46.1242 637.988
      vertex -34.972 34.9715 671.153
      vertex -19.348 45.4139 671.153
    endloop
  endfacet
  facet normal -0.556063 0.830847 0.0220801
    outer loop
      vertex -34.972 34.9715 671.153
      vertex -19.625 46.1242 637.988
      vertex -35.5 35.4995 637.988
    endloop
  endfacet
  facet normal -0.830835 0.556081 0.0220802
    outer loop
      vertex -46.125 19.6248 637.988
      vertex -34.972 34.9715 671.153
      vertex -35.5 35.4995 637.988
    endloop
  endfacet
  facet normal -0.831195 0.555527 0.0224575
    outer loop
      vertex -34.972 34.9715 671.153
      vertex -46.125 19.6248 637.988
      vertex -45.414 19.3479 671.153
    endloop
  endfacet
  facet normal -0.980806 0.193664 0.0226436
    outer loop
      vertex -50 0 637.988
      vertex -45.414 19.3479 671.153
      vertex -46.125 19.6248 637.988
    endloop
  endfacet
  facet normal -0.980944 0.192915 0.0231001
    outer loop
      vertex -45.414 19.3479 671.153
      vertex -50 0 637.988
      vertex -49.219 0 671.153
    endloop
  endfacet
  facet normal -0.980944 -0.192915 0.0231001
    outer loop
      vertex -50 0 637.988
      vertex -45.414 -19.3479 671.153
      vertex -49.219 0 671.153
    endloop
  endfacet
  facet normal -0.980806 -0.193664 0.0226436
    outer loop
      vertex -45.414 -19.3479 671.153
      vertex -50 0 637.988
      vertex -46.125 -19.6248 637.988
    endloop
  endfacet
  facet normal -0.831195 -0.555527 0.0224575
    outer loop
      vertex -46.125 -19.6248 637.988
      vertex -34.972 -34.9715 671.153
      vertex -45.414 -19.3479 671.153
    endloop
  endfacet
  facet normal -0.830835 -0.556081 0.0220802
    outer loop
      vertex -34.972 -34.9715 671.153
      vertex -46.125 -19.6248 637.988
      vertex -35.5 -35.4995 637.988
    endloop
  endfacet
  facet normal -0.556063 -0.830847 0.0220801
    outer loop
      vertex -19.625 -46.1242 637.988
      vertex -34.972 -34.9715 671.153
      vertex -35.5 -35.4995 637.988
    endloop
  endfacet
  facet normal -0.555532 -0.831192 0.0224417
    outer loop
      vertex -34.972 -34.9715 671.153
      vertex -19.625 -46.1242 637.988
      vertex -19.348 -45.4139 671.153
    endloop
  endfacet
  facet normal -0.192896 -0.980958 0.0226204
    outer loop
      vertex -19.625 -46.1242 637.988
      vertex 0 -49.2185 671.153
      vertex -19.348 -45.4139 671.153
    endloop
  endfacet
  facet normal -0.193651 -0.980799 0.023082
    outer loop
      vertex 0 -49.2185 671.153
      vertex -19.625 -46.1242 637.988
      vertex 0 -49.999 637.988
    endloop
  endfacet
  facet normal 0.192894 -0.980948 0.0230855
    outer loop
      vertex 0 -49.999 637.988
      vertex 19.348 -45.4139 671.153
      vertex 0 -49.2185 671.153
    endloop
  endfacet
  facet normal 0.193653 -0.980809 0.0226236
    outer loop
      vertex 19.348 -45.4139 671.153
      vertex 0 -49.999 637.988
      vertex 19.625 -46.1242 637.988
    endloop
  endfacet
  facet normal 0.555532 -0.831192 0.0224417
    outer loop
      vertex 19.625 -46.1242 637.988
      vertex 34.972 -34.9715 671.153
      vertex 19.348 -45.4139 671.153
    endloop
  endfacet
  facet normal 0.556063 -0.830847 0.0220801
    outer loop
      vertex 34.972 -34.9715 671.153
      vertex 19.625 -46.1242 637.988
      vertex 35.5 -35.4995 637.988
    endloop
  endfacet
  facet normal 0.831195 -0.555527 0.0224575
    outer loop
      vertex 34.972 -34.9715 671.153
      vertex 46.125 -19.6248 637.988
      vertex 45.414 -19.3479 671.153
    endloop
  endfacet
  facet normal 0.830835 -0.556081 0.0220802
    outer loop
      vertex 46.125 -19.6248 637.988
      vertex 34.972 -34.9715 671.153
      vertex 35.5 -35.4995 637.988
    endloop
  endfacet
  facet normal 0.980944 -0.192915 0.0231001
    outer loop
      vertex 45.414 -19.3479 671.153
      vertex 50 0 637.988
      vertex 49.219 0 671.153
    endloop
  endfacet
  facet normal 0.980806 -0.193664 0.0226436
    outer loop
      vertex 50 0 637.988
      vertex 45.414 -19.3479 671.153
      vertex 46.125 -19.6248 637.988
    endloop
  endfacet
endsolid OpenSCAD_Model
