solid OpenSCAD_Model
  facet normal 0.142787 0.0279928 0.989357
    outer loop
      vertex 85.156 0 737.76
      vertex 78.586 33.5127 737.76
      vertex 0 0 750.05
    endloop
  endfacet
  facet normal 0.120445 0.0804205 0.989457
    outer loop
      vertex 78.586 33.5127 737.76
      vertex 60.54 60.5401 737.76
      vertex 0 0 750.05
    endloop
  endfacet
  facet normal 0.0804225 0.120443 0.989457
    outer loop
      vertex 60.54 60.5401 737.76
      vertex 33.513 78.5866 737.76
      vertex 0 0 750.05
    endloop
  endfacet
  facet normal 0.0279927 0.142786 0.989358
    outer loop
      vertex 33.513 78.5866 737.76
      vertex 0 85.1567 737.76
      vertex 0 0 750.05
    endloop
  endfacet
  facet normal -0.0279927 0.142786 0.989358
    outer loop
      vertex 0 85.1567 737.76
      vertex -33.513 78.5866 737.76
      vertex 0 0 750.05
    endloop
  endfacet
  facet normal -0.0804225 0.120443 0.989457
    outer loop
      vertex -33.513 78.5866 737.76
      vertex -60.54 60.5401 737.76
      vertex 0 0 750.05
    endloop
  endfacet
  facet normal -0.120445 0.0804205 0.989457
    outer loop
      vertex -60.54 60.5401 737.76
      vertex -78.586 33.5127 737.76
      vertex 0 0 750.05
    endloop
  endfacet
  facet normal -0.142787 0.0279928 0.989357
    outer loop
      vertex -78.586 33.5127 737.76
      vertex -85.156 0 737.76
      vertex 0 0 750.05
    endloop
  endfacet
  facet normal -0.142787 -0.0279928 0.989357
    outer loop
      vertex -85.156 0 737.76
      vertex -78.586 -33.5127 737.76
      vertex 0 0 750.05
    endloop
  endfacet
  facet normal -0.120445 -0.0804205 0.989457
    outer loop
      vertex -78.586 -33.5127 737.76
      vertex -60.54 -60.5401 737.76
      vertex 0 0 750.05
    endloop
  endfacet
  facet normal -0.0804225 -0.120443 0.989457
    outer loop
      vertex -60.54 -60.5401 737.76
      vertex -33.513 -78.5866 737.76
      vertex 0 0 750.05
    endloop
  endfacet
  facet normal -0.0279927 -0.142786 0.989358
    outer loop
      vertex -33.513 -78.5866 737.76
      vertex 0 -85.1567 737.76
      vertex 0 0 750.05
    endloop
  endfacet
  facet normal 0.0279927 -0.142786 0.989358
    outer loop
      vertex 0 -85.1567 737.76
      vertex 33.513 -78.5866 737.76
      vertex 0 0 750.05
    endloop
  endfacet
  facet normal 0.0804225 -0.120443 0.989457
    outer loop
      vertex 33.513 -78.5866 737.76
      vertex 60.54 -60.5401 737.76
      vertex 0 0 750.05
    endloop
  endfacet
  facet normal 0.120445 -0.0804205 0.989457
    outer loop
      vertex 60.54 -60.5401 737.76
      vertex 78.586 -33.5127 737.76
      vertex 0 0 750.05
    endloop
  endfacet
  facet normal 0.142787 -0.0279928 0.989357
    outer loop
      vertex 78.586 -33.5127 737.76
      vertex 85.156 0 737.76
      vertex 0 0 750.05
    endloop
  endfacet
  facet normal 0.973303 0.190811 -0.127561
    outer loop
      vertex 85.156 0 737.76
      vertex 74.979 31.9696 707.93
      vertex 78.586 33.5127 737.76
    endloop
  endfacet
  facet normal 0.973298 0.190917 -0.127445
    outer loop
      vertex 74.979 31.9696 707.93
      vertex 85.156 0 737.76
      vertex 81.25 0 707.93
    endloop
  endfacet
  facet normal 0.824784 0.550703 -0.128286
    outer loop
      vertex 78.586 33.5127 737.76
      vertex 57.758 57.7578 707.93
      vertex 60.54 60.5401 737.76
    endloop
  endfacet
  facet normal 0.824756 0.550761 -0.128219
    outer loop
      vertex 57.758 57.7578 707.93
      vertex 78.586 33.5127 737.76
      vertex 74.979 31.9696 707.93
    endloop
  endfacet
  facet normal 0.550719 0.824773 -0.128289
    outer loop
      vertex 57.758 57.7578 707.93
      vertex 33.513 78.5866 737.76
      vertex 60.54 60.5401 737.76
    endloop
  endfacet
  facet normal 0.550781 0.824743 -0.128217
    outer loop
      vertex 33.513 78.5866 737.76
      vertex 57.758 57.7578 707.93
      vertex 31.97 74.9796 707.93
    endloop
  endfacet
  facet normal 0.190812 0.973303 -0.12756
    outer loop
      vertex 31.97 74.9796 707.93
      vertex 0 85.1567 737.76
      vertex 33.513 78.5866 737.76
    endloop
  endfacet
  facet normal 0.190906 0.973298 -0.127459
    outer loop
      vertex 0 85.1567 737.76
      vertex 31.97 74.9796 707.93
      vertex 0 81.2503 707.93
    endloop
  endfacet
  facet normal 0.745874 0.146307 -0.64982
    outer loop
      vertex 81.25 0 707.93
      vertex 45.414 19.3479 671.153
      vertex 74.979 31.9696 707.93
    endloop
  endfacet
  facet normal 0.745929 0.146696 -0.649669
    outer loop
      vertex 45.414 19.3479 671.153
      vertex 81.25 0 707.93
      vertex 49.219 0 671.153
    endloop
  endfacet
  facet normal 0.630649 0.421493 -0.651633
    outer loop
      vertex 34.972 34.9715 671.153
      vertex 74.979 31.9696 707.93
      vertex 45.414 19.3479 671.153
    endloop
  endfacet
  facet normal 0.630731 0.421193 -0.651747
    outer loop
      vertex 74.979 31.9696 707.93
      vertex 34.972 34.9715 671.153
      vertex 57.758 57.7578 707.93
    endloop
  endfacet
  facet normal 0.421208 0.630719 -0.65175
    outer loop
      vertex 34.972 34.9715 671.153
      vertex 31.97 74.9796 707.93
      vertex 57.758 57.7578 707.93
    endloop
  endfacet
  facet normal 0.421492 0.63064 -0.651642
    outer loop
      vertex 31.97 74.9796 707.93
      vertex 34.972 34.9715 671.153
      vertex 19.348 45.4139 671.153
    endloop
  endfacet
  facet normal 0.146297 0.745869 -0.649828
    outer loop
      vertex 19.348 45.4139 671.153
      vertex 0 81.2503 707.93
      vertex 31.97 74.9796 707.93
    endloop
  endfacet
  facet normal 0.146679 0.745923 -0.64968
    outer loop
      vertex 0 81.2503 707.93
      vertex 19.348 45.4139 671.153
      vertex 0 49.2185 671.153
    endloop
  endfacet
  facet normal -0.190906 0.973298 -0.127459
    outer loop
      vertex -31.97 74.9796 707.93
      vertex 0 85.1567 737.76
      vertex 0 81.2503 707.93
    endloop
  endfacet
  facet normal -0.190812 0.973303 -0.12756
    outer loop
      vertex 0 85.1567 737.76
      vertex -31.97 74.9796 707.93
      vertex -33.513 78.5866 737.76
    endloop
  endfacet
  facet normal -0.550781 0.824743 -0.128217
    outer loop
      vertex -57.758 57.7578 707.93
      vertex -33.513 78.5866 737.76
      vertex -31.97 74.9796 707.93
    endloop
  endfacet
  facet normal -0.550719 0.824773 -0.128289
    outer loop
      vertex -33.513 78.5866 737.76
      vertex -57.758 57.7578 707.93
      vertex -60.54 60.5401 737.76
    endloop
  endfacet
  facet normal -0.824784 0.550703 -0.128286
    outer loop
      vertex -57.758 57.7578 707.93
      vertex -78.586 33.5127 737.76
      vertex -60.54 60.5401 737.76
    endloop
  endfacet
  facet normal -0.824756 0.550761 -0.128219
    outer loop
      vertex -78.586 33.5127 737.76
      vertex -57.758 57.7578 707.93
      vertex -74.979 31.9696 707.93
    endloop
  endfacet
  facet normal -0.973298 0.190917 -0.127445
    outer loop
      vertex -85.156 0 737.76
      vertex -74.979 31.9696 707.93
      vertex -81.25 0 707.93
    endloop
  endfacet
  facet normal -0.973303 0.190811 -0.127561
    outer loop
      vertex -74.979 31.9696 707.93
      vertex -85.156 0 737.76
      vertex -78.586 33.5127 737.76
    endloop
  endfacet
  facet normal -0.146679 0.745923 -0.64968
    outer loop
      vertex -19.348 45.4139 671.153
      vertex 0 81.2503 707.93
      vertex 0 49.2185 671.153
    endloop
  endfacet
  facet normal -0.146297 0.745869 -0.649828
    outer loop
      vertex 0 81.2503 707.93
      vertex -19.348 45.4139 671.153
      vertex -31.97 74.9796 707.93
    endloop
  endfacet
  facet normal -0.421492 0.63064 -0.651642
    outer loop
      vertex -34.972 34.9715 671.153
      vertex -31.97 74.9796 707.93
      vertex -19.348 45.4139 671.153
    endloop
  endfacet
  facet normal -0.421208 0.630719 -0.65175
    outer loop
      vertex -31.97 74.9796 707.93
      vertex -34.972 34.9715 671.153
      vertex -57.758 57.7578 707.93
    endloop
  endfacet
  facet normal -0.630649 0.421493 -0.651633
    outer loop
      vertex -74.979 31.9696 707.93
      vertex -34.972 34.9715 671.153
      vertex -45.414 19.3479 671.153
    endloop
  endfacet
  facet normal -0.630731 0.421193 -0.651747
    outer loop
      vertex -34.972 34.9715 671.153
      vertex -74.979 31.9696 707.93
      vertex -57.758 57.7578 707.93
    endloop
  endfacet
  facet normal -0.745929 0.146696 -0.649669
    outer loop
      vertex -81.25 0 707.93
      vertex -45.414 19.3479 671.153
      vertex -49.219 0 671.153
    endloop
  endfacet
  facet normal -0.745874 0.146307 -0.64982
    outer loop
      vertex -45.414 19.3479 671.153
      vertex -81.25 0 707.93
      vertex -74.979 31.9696 707.93
    endloop
  endfacet
  facet normal -0.973298 -0.190917 -0.127445
    outer loop
      vertex -74.979 -31.9696 707.93
      vertex -85.156 0 737.76
      vertex -81.25 0 707.93
    endloop
  endfacet
  facet normal -0.973303 -0.190811 -0.127561
    outer loop
      vertex -85.156 0 737.76
      vertex -74.979 -31.9696 707.93
      vertex -78.586 -33.5127 737.76
    endloop
  endfacet
  facet normal -0.824756 -0.550761 -0.128219
    outer loop
      vertex -57.758 -57.7578 707.93
      vertex -78.586 -33.5127 737.76
      vertex -74.979 -31.9696 707.93
    endloop
  endfacet
  facet normal -0.824784 -0.550703 -0.128286
    outer loop
      vertex -78.586 -33.5127 737.76
      vertex -57.758 -57.7578 707.93
      vertex -60.54 -60.5401 737.76
    endloop
  endfacet
  facet normal -0.550719 -0.824773 -0.128289
    outer loop
      vertex -57.758 -57.7578 707.93
      vertex -33.513 -78.5866 737.76
      vertex -60.54 -60.5401 737.76
    endloop
  endfacet
  facet normal -0.550781 -0.824743 -0.128217
    outer loop
      vertex -33.513 -78.5866 737.76
      vertex -57.758 -57.7578 707.93
      vertex -31.97 -74.9796 707.93
    endloop
  endfacet
  facet normal -0.190812 -0.973303 -0.12756
    outer loop
      vertex -31.97 -74.9796 707.93
      vertex 0 -85.1567 737.76
      vertex -33.513 -78.5866 737.76
    endloop
  endfacet
  facet normal -0.190906 -0.973298 -0.127459
    outer loop
      vertex 0 -85.1567 737.76
      vertex -31.97 -74.9796 707.93
      vertex 0 -81.2503 707.93
    endloop
  endfacet
  facet normal -0.745929 -0.146696 -0.649669
    outer loop
      vertex -45.414 -19.3479 671.153
      vertex -81.25 0 707.93
      vertex -49.219 0 671.153
    endloop
  endfacet
  facet normal -0.745874 -0.146307 -0.64982
    outer loop
      vertex -81.25 0 707.93
      vertex -45.414 -19.3479 671.153
      vertex -74.979 -31.9696 707.93
    endloop
  endfacet
  facet normal -0.630731 -0.421193 -0.651747
    outer loop
      vertex -74.979 -31.9696 707.93
      vertex -34.972 -34.9715 671.153
      vertex -57.758 -57.7578 707.93
    endloop
  endfacet
  facet normal -0.630649 -0.421493 -0.651633
    outer loop
      vertex -34.972 -34.9715 671.153
      vertex -74.979 -31.9696 707.93
      vertex -45.414 -19.3479 671.153
    endloop
  endfacet
  facet normal -0.421492 -0.63064 -0.651642
    outer loop
      vertex -31.97 -74.9796 707.93
      vertex -34.972 -34.9715 671.153
      vertex -19.348 -45.4139 671.153
    endloop
  endfacet
  facet normal -0.421208 -0.630719 -0.65175
    outer loop
      vertex -34.972 -34.9715 671.153
      vertex -31.97 -74.9796 707.93
      vertex -57.758 -57.7578 707.93
    endloop
  endfacet
  facet normal -0.146297 -0.745869 -0.649828
    outer loop
      vertex -19.348 -45.4139 671.153
      vertex 0 -81.2503 707.93
      vertex -31.97 -74.9796 707.93
    endloop
  endfacet
  facet normal -0.146679 -0.745923 -0.64968
    outer loop
      vertex 0 -81.2503 707.93
      vertex -19.348 -45.4139 671.153
      vertex 0 -49.2185 671.153
    endloop
  endfacet
  facet normal 0.190906 -0.973298 -0.127459
    outer loop
      vertex 31.97 -74.9796 707.93
      vertex 0 -85.1567 737.76
      vertex 0 -81.2503 707.93
    endloop
  endfacet
  facet normal 0.190812 -0.973303 -0.12756
    outer loop
      vertex 0 -85.1567 737.76
      vertex 31.97 -74.9796 707.93
      vertex 33.513 -78.5866 737.76
    endloop
  endfacet
  facet normal 0.550781 -0.824743 -0.128217
    outer loop
      vertex 57.758 -57.7578 707.93
      vertex 33.513 -78.5866 737.76
      vertex 31.97 -74.9796 707.93
    endloop
  endfacet
  facet normal 0.550719 -0.824773 -0.128289
    outer loop
      vertex 33.513 -78.5866 737.76
      vertex 57.758 -57.7578 707.93
      vertex 60.54 -60.5401 737.76
    endloop
  endfacet
  facet normal 0.824756 -0.550761 -0.128219
    outer loop
      vertex 78.586 -33.5127 737.76
      vertex 57.758 -57.7578 707.93
      vertex 74.979 -31.9696 707.93
    endloop
  endfacet
  facet normal 0.824784 -0.550703 -0.128286
    outer loop
      vertex 57.758 -57.7578 707.93
      vertex 78.586 -33.5127 737.76
      vertex 60.54 -60.5401 737.76
    endloop
  endfacet
  facet normal 0.973298 -0.190917 -0.127445
    outer loop
      vertex 85.156 0 737.76
      vertex 74.979 -31.9696 707.93
      vertex 81.25 0 707.93
    endloop
  endfacet
  facet normal 0.973303 -0.190811 -0.127561
    outer loop
      vertex 74.979 -31.9696 707.93
      vertex 85.156 0 737.76
      vertex 78.586 -33.5127 737.76
    endloop
  endfacet
  facet normal 0.146679 -0.745923 -0.64968
    outer loop
      vertex 19.348 -45.4139 671.153
      vertex 0 -81.2503 707.93
      vertex 0 -49.2185 671.153
    endloop
  endfacet
  facet normal 0.146297 -0.745869 -0.649828
    outer loop
      vertex 0 -81.2503 707.93
      vertex 19.348 -45.4139 671.153
      vertex 31.97 -74.9796 707.93
    endloop
  endfacet
  facet normal 0.421208 -0.630719 -0.65175
    outer loop
      vertex 31.97 -74.9796 707.93
      vertex 34.972 -34.9715 671.153
      vertex 57.758 -57.7578 707.93
    endloop
  endfacet
  facet normal 0.421492 -0.63064 -0.651642
    outer loop
      vertex 34.972 -34.9715 671.153
      vertex 31.97 -74.9796 707.93
      vertex 19.348 -45.4139 671.153
    endloop
  endfacet
  facet normal 0.630731 -0.421193 -0.651747
    outer loop
      vertex 34.972 -34.9715 671.153
      vertex 74.979 -31.9696 707.93
      vertex 57.758 -57.7578 707.93
    endloop
  endfacet
  facet normal 0.630649 -0.421493 -0.651633
    outer loop
      vertex 74.979 -31.9696 707.93
      vertex 34.972 -34.9715 671.153
      vertex 45.414 -19.3479 671.153
    endloop
  endfacet
  facet normal 0.745929 -0.146696 -0.649669
    outer loop
      vertex 81.25 0 707.93
      vertex 45.414 -19.3479 671.153
      vertex 49.219 0 671.153
    endloop
  endfacet
  facet normal 0.745874 -0.146307 -0.64982
    outer loop
      vertex 45.414 -19.3479 671.153
      vertex 81.25 0 707.93
      vertex 74.979 -31.9696 707.93
    endloop
  endfacet
endsolid OpenSCAD_Model
